# 3ds Max Wavefront OBJ Exporter v0.99 - (c)2007 guruware
# 创建的文件:10.05.2023 08:25:16

mtllib 山.mtl

#
# object Plane001
#

v  -187.6972 -2.3811 169.3547
v  -187.6972 0.3193 218.5673
v  -138.4846 30.1347 218.5673
v  -138.4846 9.3151 169.3547
v  -89.2720 -45.6984 218.5673
v  -89.2720 31.2428 169.3547
v  -40.0594 57.0798 218.5673
v  -40.0594 -19.8715 169.3547
v  9.1532 -40.6955 218.5673
v  9.1532 18.1382 169.3547
v  58.3657 41.9074 218.5673
v  58.3657 49.0372 169.3547
v  107.5783 40.0294 218.5673
v  107.5783 -1.9055 169.3547
v  156.7910 69.7843 218.5673
v  156.7910 20.5131 169.3547
v  206.0035 45.0593 218.5673
v  206.0035 -54.0430 169.3547
v  -187.6972 -15.0902 120.1421
v  -138.4846 13.2886 120.1421
v  -89.2720 -97.9253 120.1421
v  -40.0594 18.5778 120.1421
v  9.1532 15.8229 120.1421
v  58.3657 -18.7547 120.1421
v  107.5783 63.6071 120.1421
v  156.7910 -54.5807 120.1421
v  206.0035 -50.8342 120.1421
v  -187.6972 -119.5778 70.9295
v  -138.4846 -7.5516 70.9295
v  -89.2720 41.0648 70.9295
v  -40.0594 37.4946 70.9295
v  9.1532 63.1880 70.9295
v  58.3657 23.6294 70.9295
v  107.5783 -39.4546 70.9295
v  156.7910 37.0537 70.9295
v  206.0035 -25.6984 70.9295
v  -187.6972 -32.7813 21.7169
v  -138.4846 -9.8953 21.7169
v  -89.2720 11.7857 21.7169
v  -40.0594 25.9056 21.7169
v  9.1532 -0.7248 21.7169
v  58.3657 33.9079 21.7169
v  107.5783 -2.0783 21.7169
v  156.7910 -11.5726 21.7169
v  206.0035 -35.2127 21.7169
v  -187.6972 -4.1787 -27.4957
v  -138.4846 -6.8750 -27.4957
v  -89.2720 16.1426 -27.4957
v  -40.0594 -5.9877 -27.4957
v  9.1532 -74.9049 -27.4957
v  58.3657 11.2201 -27.4957
v  107.5783 -13.0112 -27.4957
v  156.7910 -57.9709 -27.4957
v  206.0035 12.3635 -27.4957
v  -187.6972 -2.9674 -76.7083
v  -138.4846 7.2899 -76.7083
v  -89.2720 47.5612 -76.7083
v  -40.0594 12.9050 -76.7083
v  9.1532 33.6772 -76.7083
v  58.3657 18.5718 -76.7083
v  107.5783 25.7809 -76.7083
v  156.7910 4.5550 -76.7083
v  206.0035 26.0272 -76.7083
v  -187.6972 -0.6909 -125.9209
v  -138.4846 -9.8085 -125.9209
v  -89.2720 47.6064 -125.9209
v  -40.0594 45.4078 -125.9209
v  9.1532 17.4464 -125.9209
v  58.3657 23.5720 -125.9209
v  107.5783 28.2025 -125.9209
v  156.7910 -5.7759 -125.9209
v  206.0035 -30.9029 -125.9209
v  -187.6972 28.7358 -175.1335
v  -138.4846 -20.8252 -175.1335
v  -89.2720 18.3364 -175.1335
v  -40.0594 -83.7693 -175.1335
v  9.1532 -14.7014 -175.1335
v  58.3657 0.9194 -175.1335
v  107.5783 49.3596 -175.1335
v  156.7910 -21.7490 -175.1335
v  206.0035 -38.0527 -175.1335
# 81 vertices

vn -0.2286 0.9617 -0.1513
vn -0.5176 0.8543 -0.0469
vn 0.1783 0.9062 -0.3834
vn -0.3129 0.9378 -0.1502
vn -0.0251 0.5387 0.8422
vn 0.1493 0.9855 -0.0803
vn -0.0038 0.5388 -0.8424
vn 0.0576 0.9895 -0.1324
vn 0.0167 0.6415 0.7669
vn -0.5295 0.7689 0.3583
vn -0.4942 0.8604 0.1247
vn 0.1018 0.9386 -0.3296
vn -0.2205 0.7424 -0.6326
vn 0.1509 0.9845 0.0893
vn -0.0231 0.7065 -0.7073
vn 0.2406 0.6346 -0.7345
vn 0.2181 0.4341 -0.8741
vn 0.8111 0.5354 -0.2355
vn -0.3743 0.6491 -0.6622
vn 0.2820 0.9491 -0.1403
vn -0.0059 0.9999 0.0082
vn -0.4918 0.7633 0.4190
vn 0.3269 0.8744 0.3586
vn -0.1612 0.9828 -0.0896
vn 0.0515 0.9962 -0.0709
vn 0.4163 0.9085 0.0359
vn -0.0731 0.9608 0.2673
vn -0.9155 0.4022 -0.0107
vn -0.8273 0.5475 -0.1258
vn -0.2893 0.9115 0.2925
vn -0.2134 0.9745 0.0699
vn 0.0794 0.9950 -0.0602
vn 0.6639 0.6664 0.3394
vn -0.0341 0.9837 -0.1764
vn -0.0347 0.9933 0.1103
vn 0.7825 0.6136 0.1058
vn -0.2948 0.6340 0.7150
vn -0.4126 0.9109 0.0062
vn -0.3364 0.9171 -0.2140
vn 0.0990 0.9211 -0.3766
vn -0.0412 0.5732 -0.8184
vn 0.0082 0.9948 -0.1016
vn 0.4126 0.8863 0.2102
vn 0.2331 0.6993 -0.6758
vn 0.4212 0.8769 0.2314
vn 0.0527 0.9616 0.2695
vn -0.1850 0.9689 0.1645
vn -0.0076 0.9391 0.3435
vn 0.6714 0.7360 -0.0866
vn -0.0364 0.9977 0.0577
vn -0.3337 0.9305 -0.1511
vn 0.5703 0.7971 0.1983
vn -0.0842 0.9948 0.0567
vn -0.7876 0.5511 0.2756
vn -0.2039 0.9784 0.0346
vn -0.4498 0.8928 -0.0255
vn -0.0326 0.9663 0.2553
vn 0.0981 0.8915 0.4423
vn -0.0433 0.9333 0.3564
vn 0.0758 0.9893 0.1245
vn 0.1190 0.9355 0.3328
vn -0.0022 0.9192 0.3937
vn -0.3885 0.8904 -0.2373
vn 0.1742 0.9404 0.2920
vn -0.3222 0.9115 -0.2555
vn -0.3676 0.8997 -0.2353
vn 0.2438 0.9286 -0.2797
vn 0.1823 0.8810 -0.4365
vn -0.1069 0.9808 -0.1631
vn 0.2565 0.9397 0.2264
vn 0.5006 0.8364 -0.2233
vn 0.4164 0.8155 -0.4019
vn 0.6539 0.6493 0.3883
vn 0.0523 0.9745 -0.2182
vn 0.2694 0.8277 -0.4923
vn 0.0213 0.3559 -0.9343
vn -0.5808 0.6815 -0.4452
vn -0.4551 0.8088 -0.3723
vn 0.0733 0.9162 0.3939
vn 0.5517 0.7933 -0.2575
vn 0.3115 0.9404 -0.1366
# 81 vertex normals

vt 0.0000 0.1250 0.0000
vt 0.0000 0.0000 0.0000
vt 0.1250 0.0000 0.0000
vt 0.1250 0.1250 0.0000
vt 0.2500 0.0000 0.0000
vt 0.2500 0.1250 0.0000
vt 0.3750 0.0000 0.0000
vt 0.3750 0.1250 0.0000
vt 0.5000 0.0000 0.0000
vt 0.5000 0.1250 0.0000
vt 0.6250 0.0000 0.0000
vt 0.6250 0.1250 0.0000
vt 0.7500 0.0000 0.0000
vt 0.7500 0.1250 0.0000
vt 0.8750 0.0000 0.0000
vt 0.8750 0.1250 0.0000
vt 1.0000 0.0000 0.0000
vt 1.0000 0.1250 0.0000
vt 0.0000 0.2500 0.0000
vt 0.1250 0.2500 0.0000
vt 0.2500 0.2500 0.0000
vt 0.3750 0.2500 0.0000
vt 0.5000 0.2500 0.0000
vt 0.6250 0.2500 0.0000
vt 0.7500 0.2500 0.0000
vt 0.8750 0.2500 0.0000
vt 1.0000 0.2500 0.0000
vt 0.0000 0.3750 0.0000
vt 0.1250 0.3750 0.0000
vt 0.2500 0.3750 0.0000
vt 0.3750 0.3750 0.0000
vt 0.5000 0.3750 0.0000
vt 0.6250 0.3750 0.0000
vt 0.7500 0.3750 0.0000
vt 0.8750 0.3750 0.0000
vt 1.0000 0.3750 0.0000
vt 0.0000 0.5000 0.0000
vt 0.1250 0.5000 0.0000
vt 0.2500 0.5000 0.0000
vt 0.3750 0.5000 0.0000
vt 0.5000 0.5000 0.0000
vt 0.6250 0.5000 0.0000
vt 0.7500 0.5000 0.0000
vt 0.8750 0.5000 0.0000
vt 1.0000 0.5000 0.0000
vt 0.0000 0.6250 0.0000
vt 0.1250 0.6250 0.0000
vt 0.2500 0.6250 0.0000
vt 0.3750 0.6250 0.0000
vt 0.5000 0.6250 0.0000
vt 0.6250 0.6250 0.0000
vt 0.7500 0.6250 0.0000
vt 0.8750 0.6250 0.0000
vt 1.0000 0.6250 0.0000
vt 0.0000 0.7500 0.0000
vt 0.1250 0.7500 0.0000
vt 0.2500 0.7500 0.0000
vt 0.3750 0.7500 0.0000
vt 0.5000 0.7500 0.0000
vt 0.6250 0.7500 0.0000
vt 0.7500 0.7500 0.0000
vt 0.8750 0.7500 0.0000
vt 1.0000 0.7500 0.0000
vt 0.0000 0.8750 0.0000
vt 0.1250 0.8750 0.0000
vt 0.2500 0.8750 0.0000
vt 0.3750 0.8750 0.0000
vt 0.5000 0.8750 0.0000
vt 0.6250 0.8750 0.0000
vt 0.7500 0.8750 0.0000
vt 0.8750 0.8750 0.0000
vt 1.0000 0.8750 0.0000
vt 0.0000 1.0000 0.0000
vt 0.1250 1.0000 0.0000
vt 0.2500 1.0000 0.0000
vt 0.3750 1.0000 0.0000
vt 0.5000 1.0000 0.0000
vt 0.6250 1.0000 0.0000
vt 0.7500 1.0000 0.0000
vt 0.8750 1.0000 0.0000
vt 1.0000 1.0000 0.0000
# 81 texture coords

o Plane001
g Plane001
usemtl 03___Default
s 1
f 1/1/1 2/2/2 3/3/3 4/4/4 
f 4/4/4 3/3/3 5/5/5 6/6/6 
f 6/6/6 5/5/5 7/7/7 8/8/8 
f 8/8/8 7/7/7 9/9/9 10/10/10 
f 10/10/10 9/9/9 11/11/11 12/12/12 
f 12/12/12 11/11/11 13/13/13 14/14/14 
f 14/14/14 13/13/13 15/15/15 16/16/16 
f 16/16/16 15/15/15 17/17/17 18/18/18 
f 19/19/19 1/1/1 4/4/4 20/20/20 
f 20/20/20 4/4/4 6/6/6 21/21/21 
f 21/21/21 6/6/6 8/8/8 22/22/22 
f 22/22/22 8/8/8 10/10/10 23/23/23 
f 23/23/23 10/10/10 12/12/12 24/24/24 
f 24/24/24 12/12/12 14/14/14 25/25/25 
f 25/25/25 14/14/14 16/16/16 26/26/26 
f 26/26/26 16/16/16 18/18/18 27/27/27 
f 28/28/28 19/19/19 20/20/20 29/29/29 
f 29/29/29 20/20/20 21/21/21 30/30/30 
f 30/30/30 21/21/21 22/22/22 31/31/31 
f 31/31/31 22/22/22 23/23/23 32/32/32 
f 32/32/32 23/23/23 24/24/24 33/33/33 
f 33/33/33 24/24/24 25/25/25 34/34/34 
f 34/34/34 25/25/25 26/26/26 35/35/35 
f 35/35/35 26/26/26 27/27/27 36/36/36 
f 37/37/37 28/28/28 29/29/29 38/38/38 
f 38/38/38 29/29/29 30/30/30 39/39/39 
f 39/39/39 30/30/30 31/31/31 40/40/40 
f 40/40/40 31/31/31 32/32/32 41/41/41 
f 41/41/41 32/32/32 33/33/33 42/42/42 
f 42/42/42 33/33/33 34/34/34 43/43/43 
f 43/43/43 34/34/34 35/35/35 44/44/44 
f 44/44/44 35/35/35 36/36/36 45/45/45 
f 46/46/46 37/37/37 38/38/38 47/47/47 
f 47/47/47 38/38/38 39/39/39 48/48/48 
f 48/48/48 39/39/39 40/40/40 49/49/49 
f 49/49/49 40/40/40 41/41/41 50/50/50 
f 50/50/50 41/41/41 42/42/42 51/51/51 
f 51/51/51 42/42/42 43/43/43 52/52/52 
f 52/52/52 43/43/43 44/44/44 53/53/53 
f 53/53/53 44/44/44 45/45/45 54/54/54 
f 55/55/55 46/46/46 47/47/47 56/56/56 
f 56/56/56 47/47/47 48/48/48 57/57/57 
f 57/57/57 48/48/48 49/49/49 58/58/58 
f 58/58/58 49/49/49 50/50/50 59/59/59 
f 59/59/59 50/50/50 51/51/51 60/60/60 
f 60/60/60 51/51/51 52/52/52 61/61/61 
f 61/61/61 52/52/52 53/53/53 62/62/62 
f 62/62/62 53/53/53 54/54/54 63/63/63 
f 64/64/64 55/55/55 56/56/56 65/65/65 
f 65/65/65 56/56/56 57/57/57 66/66/66 
f 66/66/66 57/57/57 58/58/58 67/67/67 
f 67/67/67 58/58/58 59/59/59 68/68/68 
f 68/68/68 59/59/59 60/60/60 69/69/69 
f 69/69/69 60/60/60 61/61/61 70/70/70 
f 70/70/70 61/61/61 62/62/62 71/71/71 
f 71/71/71 62/62/62 63/63/63 72/72/72 
f 73/73/73 64/64/64 65/65/65 74/74/74 
f 74/74/74 65/65/65 66/66/66 75/75/75 
f 75/75/75 66/66/66 67/67/67 76/76/76 
f 76/76/76 67/67/67 68/68/68 77/77/77 
f 77/77/77 68/68/68 69/69/69 78/78/78 
f 78/78/78 69/69/69 70/70/70 79/79/79 
f 79/79/79 70/70/70 71/71/71 80/80/80 
f 80/80/80 71/71/71 72/72/72 81/81/81 
# 64 polygons

